<?xml version="1.0" encoding="UTF-8"?>
<svg xmlns="http://www.w3.org/2000/svg" version="1.1" width="110" height="110">
	<style type="text/css" >
		<![CDATA[
			.fond {
			   fill:#0079ff;
			   fill-opacity:1;
			   fill-rule:evenodd;
			   stroke:#1e1e1e;
			   stroke-width:0.5;
			   stroke-miterlimit:4;
			   stroke-opacity:0.5;
			   stroke-dasharray:none;
			   stroke-linejoin:round
			}
			.blanc {
			   fill:#ffffff;
			   fill-opacity:1;
			   fill-rule:evenodd;
			   stroke:none
			}
		]]>
	</style>
    <g transform="translate(40,0)">
		<path
			d="m 29.75,15 C 29.75,32 15,33 15,54.75 C 15,33 0.25,32 0.25,15 C 0.25,7 7,0.25 15,0.25 C 23,0.25 29.75,7 29.75,15 z"
			class="fond"
		/>
		<path
			d="m 3.96875,7.78125 c -0.83672,1.0400669 -1.5442031,2.1760476 -2,3.40625 l 1.6875,0 -0.5,6.1875 3.1875,0 1.34375,-6.1875 14.625,0 1.34375,6.1875 3.1875,0 -0.5,-6.1875 1.6875,0 c -0.455798,-1.2302024 -1.16328,-2.3661831 -2,-3.40625 l -22.0625,0 z M 13.4375,2.375 l -1.875,4.5625 3.125,0 0.03125,-0.4375 0.5625,0 0.03125,0.4375 3.125,0 -1.875,-4.5625 -3.125,0 z M 15,3.25 l 0.0625,0.625 -0.125,0 L 15,3.25 z m -0.125,0.6875 0.25,0 0,0.125 -0.25,0 0,-0.125 z m 0,0.1875 0.25,0 0.03125,0.125 -0.3125,0 0.03125,-0.125 z m -0.03125,0.1875 0.3125,0 0,0.125 -0.3125,0 0,-0.125 z m 0,0.1875 0.3125,0 0,0.125 -0.3125,0 0,-0.125 z m 0,0.1875 0.3125,0 0.03125,0.125 -0.375,0 0.03125,-0.125 z m -0.03125,0.1875 0.375,0 0,0.125 -0.375,0 0,-0.125 z m 0,0.1875 0.375,0 0,0.125 -0.40625,0 0.03125,-0.125 z m -0.03125,0.1875 0.40625,0 0.03125,0.09375 -0.4375,0 0,-0.09375 z m 0,0.1875 0.4375,0 0,0.1875 -0.4375,0 0,-0.1875 z M 14.75,5.71875 l 0.46875,0 0.03125,0.25 -0.5,0 0,-0.25 z m 0,0.3125 0.5,0 0.03125,0.34375 -0.5625,0 L 14.75,6.03125 z m -5.28125,6 L 3.75,26 l 22.5,0 -5.71875,-13.96875 -4.875,0 0.03125,0.53125 -1.375,0 0.03125,-0.53125 -4.875,0 z m 4.78125,1.625 1.5,0 0.21875,3.40625 -1.9375,0 0.21875,-3.40625 z m -0.3125,5.1875 2.125,0 0.40625,6.46875 -2.9375,0 0.40625,-6.46875 z"
			class="blanc"
		/>
    </g>
</svg>
