<?xml version="1.0" encoding="UTF-8"?>
<svg xmlns="http://www.w3.org/2000/svg" version="1.1" width="30" height="55">
	<style type="text/css" >
		<![CDATA[
			.fond {
			   fill:#890c08;
			   fill-opacity:1;
			   fill-rule:evenodd;
			   stroke:#1e1e1e;
			   stroke-width:0.5;
			   stroke-miterlimit:4;
			   stroke-opacity:0.5;
			   stroke-dasharray:none;
			   stroke-linejoin:round
			}
			.blanc {
			   fill:#ffffff;
			   fill-opacity:1;
			   fill-rule:evenodd;
			   stroke:none
			}
		]]>
	</style>
    <g>
		<path
			d="m 29.75,15 C 29.75,32 15,33 15,54.75 C 15,33 0.25,32 0.25,15 C 0.25,7 7,0.25 15,0.25 C 23,0.25 29.75,7 29.75,15 z"
			class="fond"
		/>
		<path
			d="m 68.766134,16.494942 c 0,4.271359 -3.462621,7.73398 -7.73398,7.73398 -4.271359,0 -7.73398,-3.462621 -7.73398,-7.73398 0,-4.27136 3.462621,-7.7339805 7.73398,-7.7339805 4.271359,0 7.73398,3.4626205 7.73398,7.7339805 z m 0.997279,-7.3055228 c -0.103472,0 -0.194554,0.091083 -0.194554,0.1945546 l 0,3.6576252 c 0,0.625448 0.402079,1.077443 0.603119,1.614803 l 0,8.443668 c 0,0.38802 0.312377,0.700397 0.700396,0.700397 0.38802,0 0.700396,-0.312377 0.700396,-0.700397 l 0,-8.443668 c 0.20104,-0.53736 0.603119,-1.057836 0.603119,-1.614803 l 0,-3.6576252 c 0,-0.1034713 -0.07162,-0.1945546 -0.175099,-0.1945546 -0.103472,0 -0.194554,0.091083 -0.194554,0.1945546 l 0,3.6576252 -0.369654,0 0,-3.6576252 c 0,-0.1034713 -0.09108,-0.1945546 -0.194554,-0.1945546 -0.103473,0 -0.175099,0.091083 -0.175099,0.1945546 l 0,3.6576252 -0.369655,0 0,-3.6576252 c 0,-0.1034713 -0.09108,-0.1945546 -0.194554,-0.1945546 -0.103472,0 -0.194553,0.091083 -0.194553,0.1945546 l 0,3.6576252 -0.369655,0 0,-3.6576252 c 0,-0.1034713 -0.07162,-0.1945546 -0.175099,-0.1945546 z m -18.526878,0.050386 c 2.242154,1.6731698 0.833119,6.7810118 0.700396,7.2763398 l 0,6.575944 c 0,0.388019 -0.312376,0.700397 -0.700396,0.700397 -0.388019,0 -0.700396,-0.312378 -0.700396,-0.700397 l 0,-13.1518872 c 0,-0.3880198 0.389419,-0.9324579 0.700396,-0.7003966 z"
			class="blanc"
			transform="translate(-40,0) matrix(1.1036659,0,0,1.1036659,-12.716539,-1.3318255)"
		/>
    </g>
</svg>
