<?xml version="1.0" encoding="UTF-8"?>
<svg xmlns="http://www.w3.org/2000/svg" version="1.1" width="30" height="55">
	<style type="text/css" >
		<![CDATA[
			.fond {
			   fill:#1f4c79;
			   fill-opacity:1;
			   fill-rule:evenodd;
			   stroke:#1e1e1e;
			   stroke-width:0.5;
			   stroke-miterlimit:4;
			   stroke-opacity:0.5;
			   stroke-dasharray:none;
			   stroke-linejoin:round
			}
			.blanc {
			   fill:#ffffff;
			   fill-opacity:1;
			   fill-rule:evenodd;
			   stroke:none
			}
		]]>
	</style>
    <g>
		<path
			d="m 29.75,15 C 29.75,32 15,33 15,54.75 C 15,33 0.25,32 0.25,15 C 0.25,7 7,0.25 15,0.25 C 23,0.25 29.75,7 29.75,15 z"
			class="fond"
		/>
		<path
			d="M 15,2.6875 2,10.34375 3.03125,12.1875 15,5.125 26.96875,12.1875 28,10.34375 15,2.6875 z m -9.59375,10.25 0,11.28125 2.03125,0 0,-3.1875 15.125,0 0,3.1875 2.03125,0 0,-11.28125 -2.03125,0 0,4.3125 -0.375,0 0,-0.21875 0,-1.09375 0,-0.65625 -0.59375,0 0,0.65625 -4.03125,0 c -0.465177,-0.512918 -1.788355,-0.90625 -3.40625,-0.90625 -1.617895,0 -2.972323,0.393332 -3.4375,0.90625 C 10.688061,15.082217 9.9720502,14.375 9.125,14.375 c -0.8665839,0 -1.5625,0.742179 -1.5625,1.625 0,0.518008 0.2519122,0.95925 0.625,1.25 l -0.75,0 0,-4.3125 -2.03125,0 z m 5.1875,3.65625 c 0.160556,0.25636 0.559214,0.482849 1.09375,0.65625 l -1.625,0 c 0.222698,-0.173393 0.423467,-0.396647 0.53125,-0.65625 z"
			class="blanc"
		/>
    </g>
</svg>
