<?xml version="1.0" encoding="UTF-8"?>
<svg xmlns="http://www.w3.org/2000/svg" version="1.1" width="30" height="55">
	<style type="text/css" >
		<![CDATA[
			.fond {
			   fill:#e53125;
			   fill-opacity:1;
			   fill-rule:evenodd;
			   stroke:#1e1e1e;
			   stroke-width:0.5;
			   stroke-miterlimit:4;
			   stroke-opacity:0.5;
			   stroke-dasharray:none;
			   stroke-linejoin:round
			}
			.blanc {
			   fill:#ffffff;
			   fill-opacity:1;
			   fill-rule:evenodd;
			   stroke:none
			}
		]]>
	</style>
    <g>
		<path
			d="m 29.75,15 C 29.75,32 15,33 15,54.75 C 15,33 0.25,32 0.25,15 C 0.25,7 7,0.25 15,0.25 C 23,0.25 29.75,7 29.75,15 z"
			class="fond"
		/>
		<path
			d="m 82.6875,18.909058 c 0.460938,0.32552 1.515625,0.346354 2.101563,0.07813 0.416667,1.208333 -0.02604,2.268229 0.507812,3.5625 -1.666667,-0.02083 -2.13802,-0.807295 -3.40625,-0.59375 0.6875,-1.333333 0.226563,-1.70573 0.796875,-3.046875 z M 83.125,17.82312 c 0.471355,0.382813 1.091145,0.429688 1.632812,0.03125 0.158855,0.182292 0.339167,0.794126 10e-7,0.914063 -0.701065,0.247912 -1.74364,0.205982 -2.0625,-0.210938 -0.148542,-0.194223 0.0026,-0.557292 0.429687,-0.734375 z m 10.46875,-3.054687 c -2.0625,-0.3125 -8.393211,-0.104332 -9.59375,0.625 -0.591873,0.359565 -0.53125,2.25 -0.53125,2.25 0.234375,0.276042 0.664062,0.247396 1,0.09375 0,0 -0.193008,-1.531767 0.375,-1.84375 1.148567,-0.63086 8.75,-1.125 8.75,-1.125 z M 95.5,11.8125 l -14.15625,1.625 2.5,1.75 0.03125,0 c 0.377344,-0.229238 1.007174,-0.377084 1.8125,-0.5 0.805326,-0.122916 1.779647,-0.197596 2.78125,-0.25 1.001603,-0.0524 2.028338,-0.07931 2.9375,-0.0625 0.909162,0.01681 1.681489,0.07485 2.21875,0.15625 a 0.250025,0.250025 0 0 1 0.09375,0.03125 0.250025,0.250025 0 0 1 0.09375,0.09375 0.250025,0.250025 0 0 1 0.03125,0.0625 0.250025,0.250025 0 0 1 0,0.0625 0.250025,0.250025 0 0 1 0,0.0625 0.250025,0.250025 0 0 1 -0.03125,0.0625 A 0.250025,0.250025 0 0 1 93.71875,15 0.250025,0.250025 0 0 1 93.625,15.03125 c 0,0 -1.898765,0.110622 -3.9375,0.3125 -1.019367,0.100939 -2.102421,0.241168 -2.96875,0.375 -0.761018,0.117563 -1.320034,0.269049 -1.59375,0.375 l 5,3.5 18.59375,-3.75 L 95.5,11.8125 z m 7.09375,5.75 -12.34375,2.5 a 0.4346435,0.4346435 0 0 1 -0.375,-0.09375 l -3.28125,-2.3125 0,1.9375 c 0,1.739377 3.581979,3.15625 8,3.15625 4.418015,0 8,-1.416873 8,-3.15625 l 0,-2.03125 z"
			class="blanc"
			transform="translate(-80,0)"
		/>
    </g>
</svg>
