<?xml version="1.0" encoding="UTF-8" standalone="no"?>
<svg
   xmlns:dc="http://purl.org/dc/elements/1.1/"
   xmlns:cc="http://creativecommons.org/ns#"
   xmlns:rdf="http://www.w3.org/1999/02/22-rdf-syntax-ns#"
   xmlns:svg="http://www.w3.org/2000/svg"
   xmlns="http://www.w3.org/2000/svg"
   xmlns:sodipodi="http://sodipodi.sourceforge.net/DTD/sodipodi-0.dtd"
   xmlns:inkscape="http://www.inkscape.org/namespaces/inkscape"
   version="1.1"
   width="110"
   height="110"
   id="svg2"
   inkscape:version="0.48.1 r9760"
   sodipodi:docname="icones - gare2.svg">
  <metadata
     id="metadata16">
    <rdf:RDF>
      <cc:Work
         rdf:about="">
        <dc:format>image/svg+xml</dc:format>
        <dc:type
           rdf:resource="http://purl.org/dc/dcmitype/StillImage" />
      </cc:Work>
    </rdf:RDF>
  </metadata>
  <defs
     id="defs14" />
  <sodipodi:namedview
     pagecolor="#ffffff"
     bordercolor="#666666"
     borderopacity="1"
     objecttolerance="10"
     gridtolerance="10"
     guidetolerance="10"
     inkscape:pageopacity="0"
     inkscape:pageshadow="2"
     inkscape:window-width="1440"
     inkscape:window-height="853"
     id="namedview12"
     showgrid="false"
     inkscape:snap-page="true"
     inkscape:snap-center="true"
     inkscape:snap-object-midpoints="true"
     inkscape:snap-midpoints="true"
     inkscape:snap-smooth-nodes="true"
     inkscape:object-nodes="true"
     inkscape:zoom="4.6909091"
     inkscape:cx="27.897287"
     inkscape:cy="56.874028"
     inkscape:window-x="-4"
     inkscape:window-y="-4"
     inkscape:window-maximized="1"
     inkscape:current-layer="svg2" />
  <style
     type="text/css"
     id="style4">
			.fond {
			   fill:#0079ff;
			   fill-opacity:1;
			   fill-rule:evenodd;
			   stroke:#1e1e1e;
			   stroke-width:0.5;
			   stroke-miterlimit:4;
			   stroke-opacity:0.5;
			   stroke-dasharray:none;
			   stroke-linejoin:round
			}
			.blanc {
			   fill:#ffffff;
			   fill-opacity:1;
			   fill-rule:evenodd;
			   stroke:none
			}
		</style>
  <g
     id="g6"
     transform="translate(40,0)">
    <path
       d="M 29.75,15 C 29.75,32 15,33 15,54.75 15,33 0.25,32 0.25,15 0.25,7 7,0.25 15,0.25 23,0.25 29.75,7 29.75,15 z"
       class="fond"
       id="path8"
       inkscape:connector-curvature="0"
       style="fill:#0079ff;fill-opacity:1;fill-rule:evenodd;stroke:#1e1e1e;stroke-width:0.5;stroke-linejoin:round;stroke-miterlimit:4;stroke-opacity:0.5;stroke-dasharray:none" />
    <path
       d="m 139.29643,3.8933058 c -0.88714,0 -1.60892,0.4725226 -1.63392,1.0481762 -0.10288,-0.00729 -0.20106,-0.030829 -0.30829,-0.030829 -0.16703,0 -0.30767,0.044128 -0.46243,0.061657 -0.0309,-0.4306347 -0.68077,-0.7707178 -1.47978,-0.7707178 -0.799,0 -1.44893,0.3400831 -1.47977,0.7707178 -0.13045,-0.00764 -0.2656,-0.030829 -0.40078,-0.030829 -1.66143,0 -3.02121,0.5912335 -3.02121,1.3256345 0,0.1505191 0.0488,0.2947837 0.15414,0.4316019 -0.0314,-0.00239 -0.0603,0 -0.0924,0 -0.52973,0 -0.95569,0.3305508 -0.95569,0.739889 0,0.1566715 0.0776,0.2810694 0.18497,0.4007732 -0.1917,0.1536787 -0.33912,0.4204344 -0.33912,0.7090604 0,0.2019 0.0825,0.3782585 0.18497,0.524088 -0.18887,0.023912 -0.33911,0.0831 -0.33911,0.1849723 0,0.1203935 0.19081,0.2158009 0.4316,0.2158009 0.18059,0 0.33459,-0.045074 0.40077,-0.1233148 0.0305,0.00437 0.061,0.030829 0.0924,0.030829 0.40934,0 0.73989,-0.3628401 0.73989,-0.8323751 0,-0.1528204 -0.031,-0.3076749 -0.0924,-0.431602 0.37415,-0.1010733 0.64741,-0.3546331 0.64741,-0.6782316 0,-0.080664 -0.0311,-0.1431828 -0.0617,-0.2158009 0.34296,0.1487218 0.73669,0.2777133 1.20232,0.3391158 0,0.3130233 0.75651,0.5549167 1.69558,0.5549167 0.21245,0 0.39825,-0.0071 0.58574,-0.030829 0.30519,0.4352392 1.18166,0.739889 2.21967,0.739889 1.26695,0 2.30928,-0.4599477 2.34298,-1.0481761 0.0547,0.00171 0.0986,0 0.15415,0 1.23142,0 2.24857,-0.4262845 2.28132,-0.95569 0.21687,0.015598 0.41516,0.030829 0.6474,0.030829 1.63736,0 2.95956,-0.3883794 2.95956,-0.8940325 0,-0.5056531 -1.3222,-0.9248613 -2.95956,-0.9248613 -0.6594,0 -1.23401,0.072529 -1.7264,0.1849722 0.0311,-0.082225 0.0616,-0.1581404 0.0616,-0.2466296 0,-0.5899286 -0.73097,-1.0790049 -1.63392,-1.0790049 z m 5.1315,17.3583452 c 0,1.129747 -0.91584,2.045589 -2.04559,2.045589 -1.12974,0 -2.04558,-0.915842 -2.04558,-2.045589 0,-1.129748 0.91584,-2.04559 2.04558,-2.04559 1.12975,0 2.04559,0.915842 2.04559,2.04559 z m -6.62696,0 c 0,1.129747 -0.91584,2.045589 -2.04559,2.045589 -1.12974,0 -2.04558,-0.915842 -2.04558,-2.045589 0,-1.129748 0.91584,-2.04559 2.04558,-2.04559 1.12975,0 2.04559,0.915842 2.04559,2.04559 z m -6.62694,0 c 0,1.129747 -0.91584,2.045589 -2.04559,2.045589 -1.12975,0 -2.04558,-0.915842 -2.04558,-2.045589 0,-1.129748 0.91583,-2.04559 2.04558,-2.04559 1.12975,0 2.04559,0.915842 2.04559,2.04559 z m -5.75146,-3.880233 0,5.580593 -3.26988,0 z m 3.14547,-6.881676 0,2.774584 -2.37381,0 0,6.999025 0.40077,0 c 0.39448,-1.004264 1.38372,-1.726408 2.52796,-1.726408 1.14423,0 2.13347,0.722144 2.52795,1.726408 l 1.57227,0 c 0.39448,-1.004264 1.38372,-1.726408 2.52795,-1.726408 1.14423,0 2.13348,0.722144 2.52795,1.726408 l 1.57227,0 c 0.39448,-1.004264 1.38372,-1.726408 2.52795,-1.726408 0.93305,0 1.76474,0.483291 2.2505,1.20232 l 0.49326,0 0,-4.471071 c 0,-1.555009 0.22686,-3.360329 2.18884,-3.360329 l 0,-0.986519 -7.92298,0 0,2.342982 -8.72453,0 0,-2.774584 z m 12.30066,1.818894 2.46629,0 0,2.743755 -2.46629,0 z"
       class="blanc"
       transform="translate(-120,0)"
       id="path10"
       inkscape:connector-curvature="0"
       style="fill:#ffffff;fill-opacity:1;fill-rule:evenodd;stroke:none" />
  </g>
</svg>
